<svg width="60" height="50" viewBox="0 0 60 50" fill="none" xmlns="http://www.w3.org/2000/svg">
<path d="M25.2541 0.0012091C25.2616 0.00081976 25.269 -0.000232421 25.2765 4.64271e-05C25.4557 0.00677562 25.6526 0.166656 25.7992 0.259638L26.379 0.61547L30.2236 2.96992L37.1305 7.19708L41.7557 10.0369L46.033 12.7121L51.2224 15.9236L52.7735 16.8914C53.0758 17.0754 53.4219 17.2423 53.6988 17.4612C53.8626 17.5908 53.9284 17.7229 53.9504 17.9294C54.0003 18.4004 53.9601 18.9171 53.961 19.3936L53.9635 22.4029L53.9703 32.0672L53.976 36.3147C53.978 36.9902 54.0227 37.6918 53.9847 38.3646C53.9799 38.4506 53.9507 38.518 53.8941 38.5826C53.7739 38.7195 53.5774 38.8139 53.4216 38.9061L52.6181 39.3852L47.2904 42.6442L39.0405 47.6398L36.6104 49.098L35.3252 49.8725C35.1429 49.9726 34.9605 49.9879 34.7582 50C34.6199 49.9803 34.497 49.9535 34.3705 49.8917C34.1274 49.773 33.8937 49.6136 33.6624 49.4726L32.5027 48.7651L29.1346 46.6932L20.4226 41.3563L18.5522 40.1892L9.5728 34.7126L7.45395 33.4351C7.06311 33.2044 6.59841 32.983 6.24705 32.699C6.15122 32.6216 6.07169 32.5382 6.03656 32.4172C5.98425 32.2369 6.02758 31.9183 6.02781 31.7236L6.0281 29.7618L6.01529 20.3792L6.00868 14.5553L6.00825 12.7053C6.00833 12.4091 5.98746 12.0954 6.01181 11.8009C6.02128 11.6863 6.06425 11.5624 6.12247 11.4637C6.1815 11.3637 6.26721 11.2784 6.36235 11.2128C6.82456 10.8942 7.3574 10.6293 7.84358 10.3458L10.6208 8.69549L21.4903 2.2073L24.0974 0.640861L24.7802 0.234916C24.9329 0.144658 25.0805 0.0452619 25.2541 0.0012091Z" fill="#17161E"/>
<path d="M52.6518 19.1523C52.6896 19.1558 52.6703 19.1493 52.707 19.1787L52.7315 37.8502L35.3333 48.4522L35.3232 29.4274L52.6518 19.1523Z" fill="#E3FE0F"/>
<path d="M7.2926 13.0198L34.101 29.421L34.1046 48.3078L7.28076 31.8467L7.2926 13.0198Z" fill="#E3FE0F"/>
<path d="M25.2399 1.3999L52.2044 17.9627C52.103 18.0666 51.9231 18.1371 51.7951 18.2124L50.7644 18.817L47.0273 21.0141L34.721 28.3595L7.78662 11.8234C8.00771 11.6544 8.2863 11.5234 8.52734 11.3837L9.54237 10.7747L13.678 8.31009L25.2399 1.3999Z" fill="#E3FE0F"/>
<path d="M34.148 19.7289L34.1568 19.7263C34.4454 19.6963 34.7476 19.7034 35.0372 19.7095C36.1823 19.7337 37.4592 20.0066 38.3592 20.7609C38.7159 21.0599 38.9878 21.4274 39.024 21.9058C39.0443 22.1734 39.0315 22.451 39.0307 22.7195C39.0299 23.0153 39.0502 23.3374 38.9695 23.6244C38.9192 23.8033 38.8189 23.9603 38.6994 24.1003C37.9687 24.9561 36.534 25.2917 35.4694 25.3798C35.0612 25.4245 34.6172 25.4113 34.2078 25.3785C33.1576 25.2943 31.9741 25.0699 31.1305 24.3935C30.8481 24.1671 30.5999 23.8454 30.5703 23.4713C30.5436 23.1347 30.5629 22.7821 30.5634 22.4439C30.5637 22.2186 30.5371 21.9693 30.5841 21.7489C30.6361 21.5051 30.7657 21.2646 30.9237 21.0739C31.6745 20.1666 33.0297 19.8315 34.148 19.7289Z" fill="#17161E"/>
<path d="M34.3168 20.2857C35.4455 20.1863 36.9464 20.3676 37.8601 21.0903C38.0964 21.2772 38.4213 21.6051 38.4515 21.9179C38.4817 22.2301 38.395 22.5037 38.1944 22.7434C37.5215 23.5474 36.2576 23.816 35.2669 23.8973C34.105 23.9443 32.6586 23.7885 31.7122 23.0485C31.439 22.8349 31.1479 22.5259 31.1182 22.1614C31.098 21.9147 31.2381 21.6105 31.3907 21.4265C32.0654 20.613 33.3278 20.3859 34.3168 20.2857Z" fill="#E3FE0F"/>
<path d="M24.5816 3.41892C25.9138 3.30224 27.6187 3.54857 28.6881 4.39948C29.0428 4.68169 29.363 5.08066 29.4094 5.54765C29.439 5.84644 29.4283 6.1577 29.4295 6.45843C29.4305 6.71997 29.4491 7.02044 29.3814 7.27498C29.3279 7.47623 29.2136 7.66711 29.0812 7.82668C28.3154 8.74978 26.9621 9.03652 25.828 9.14011C24.4138 9.20025 22.8373 9.04504 21.6884 8.12353C21.3425 7.8461 20.9939 7.44535 20.9467 6.98577C20.9239 6.76275 20.933 6.53051 20.9302 6.30612C20.923 5.72112 20.9138 5.23513 21.3207 4.76272C22.124 3.83026 23.4095 3.51795 24.5816 3.41892Z" fill="#17161E"/>
<path d="M24.8719 3.94519L24.8993 3.94209C26.0152 3.86469 27.4959 4.15417 28.3652 4.88886C28.608 5.09399 28.841 5.38373 28.8643 5.7133C28.8841 5.99352 28.7484 6.26542 28.5678 6.47229C27.8054 7.3454 26.557 7.55428 25.4636 7.63814C24.3431 7.66598 23.0429 7.49188 22.1261 6.79192C21.8448 6.5771 21.5078 6.2308 21.4731 5.86135C21.4476 5.58913 21.5957 5.31976 21.7659 5.11946C22.5103 4.24335 23.7925 4.02895 24.8719 3.94519Z" fill="#E3FE0F"/>
<path d="M34.1071 9.31127L34.1449 9.30611C35.4713 9.19631 37.0669 9.4428 38.1235 10.307C38.4872 10.6045 38.8337 11.0133 38.8736 11.5032C38.898 11.8016 38.8785 12.1161 38.8759 12.4159C38.8741 12.6174 38.896 12.8488 38.8471 13.0443C38.7835 13.2989 38.6347 13.5556 38.4618 13.7507C37.6347 14.6847 36.2564 14.9772 35.0661 15.0405C33.8381 15.1308 32.3912 14.8998 31.3387 14.2296C30.9386 13.9749 30.4787 13.5496 30.3795 13.0589L30.3728 13.023L30.3469 12.8589C30.3286 12.647 30.3373 12.4273 30.3356 12.2143C30.3313 11.6417 30.3388 11.1934 30.7276 10.7343C31.5459 9.76832 32.9012 9.42486 34.1071 9.31127Z" fill="#17161E"/>
<path d="M34.368 9.86428L34.3758 9.86344C35.5237 9.7982 36.916 10.0086 37.813 10.7812C38.0598 10.9938 38.2955 11.2732 38.3149 11.6128C38.3327 11.9247 38.1545 12.2222 37.9472 12.4443C37.1906 13.2544 35.9225 13.506 34.8655 13.5437C33.7177 13.5561 32.3434 13.3579 31.4312 12.5986C31.1862 12.3946 30.9319 12.0781 30.908 11.7481C30.8887 11.4807 31.028 11.226 31.1999 11.032C31.9628 10.1708 33.2795 9.93363 34.368 9.86428Z" fill="#E3FE0F"/>
<path d="M25.1067 14.2051L25.1289 14.2027C26.4742 14.0946 28.0794 14.4383 29.1222 15.3302C29.467 15.6251 29.7399 16.0147 29.7687 16.4823C29.7833 16.72 29.7696 16.9673 29.7698 17.2058C29.7699 17.4615 29.7927 17.756 29.7441 18.0076C29.7008 18.2322 29.5369 18.4912 29.3864 18.6578C28.5719 19.5594 27.1213 19.8759 25.9589 19.9328C24.6319 20.0066 22.9097 19.7902 21.8494 18.9196C21.5322 18.6591 21.2572 18.3197 21.2215 17.8947C21.2015 17.6569 21.217 17.4052 21.2198 17.166C21.2265 16.5743 21.2021 16.1007 21.6115 15.6261C22.4625 14.6396 23.8603 14.2884 25.1067 14.2051Z" fill="#17161E"/>
<path d="M24.9213 14.7829L24.9263 14.7815C26.1108 14.6736 27.5943 14.9018 28.5687 15.6208C28.849 15.8275 29.1668 16.1495 29.2159 16.5094C29.2562 16.8048 29.1253 17.058 28.9472 17.2813C28.2936 18.1012 27.0847 18.3628 26.101 18.4711C24.9293 18.5924 23.4249 18.373 22.4604 17.6651C22.1438 17.4327 21.8694 17.1204 21.8186 16.7173C21.7838 16.4408 21.9016 16.1681 22.073 15.9564C22.7122 15.1665 23.9646 14.8765 24.9213 14.7829Z" fill="#E3FE0F"/>
<path d="M16.2005 8.47083C17.543 8.4985 19.0421 8.73978 20.0543 9.70775C20.3318 9.97313 20.5452 10.3349 20.5521 10.7279L20.5461 11.5623C20.5422 12.1534 20.547 12.6025 20.11 13.0495C19.1984 13.982 17.6326 14.2343 16.3898 14.2483C15.0823 14.2546 13.5525 14.0087 12.5553 13.0904C12.2593 12.8178 12.0354 12.5208 12.0216 12.1021L12.013 11.2655C12.0104 10.6757 12.014 10.2399 12.439 9.7802C13.3846 8.75741 14.882 8.52854 16.2005 8.47083Z" fill="#17161E"/>
<path d="M15.8698 9.04839C16.9541 8.95053 18.3686 9.17876 19.2745 9.80828C19.5679 10.0121 19.9479 10.3726 19.9973 10.7475C20.0299 10.9953 19.883 11.2989 19.7247 11.4833C19.0471 12.2728 17.74 12.4967 16.76 12.5628C15.738 12.6234 14.6049 12.5128 13.6733 12.0624C13.4688 11.9635 13.2564 11.8561 13.0793 11.7119C12.8203 11.5009 12.5941 11.2031 12.5701 10.8588C12.5531 10.6159 12.7161 10.3365 12.867 10.1594C13.5541 9.35307 14.8731 9.12131 15.8698 9.04839Z" fill="#E3FE0F"/>
<path d="M43.327 14.652C44.679 14.5443 46.2319 14.8234 47.3143 15.6813C47.6454 15.9436 47.9446 16.3358 47.9889 16.7702C48.0216 17.089 47.9965 17.4338 47.9958 17.7556C47.9952 17.9882 48.0271 18.2801 47.9683 18.5053C47.9104 18.7276 47.7892 18.9413 47.6392 19.114C46.7915 20.0903 45.349 20.3623 44.1252 20.452C42.7368 20.4628 41.0991 20.2987 40.0012 19.3491C39.7139 19.1006 39.4206 18.7256 39.3984 18.3317C39.3836 18.0693 39.3932 17.8004 39.3934 17.5374C39.3938 16.9124 39.3823 16.4539 39.8227 15.9539C40.681 14.9798 42.0987 14.7275 43.327 14.652Z" fill="#17161E"/>
<path d="M43.2944 15.2045L43.3169 15.2019C43.6413 15.173 43.9862 15.1934 44.3101 15.221C45.1895 15.296 46.2085 15.5094 46.9033 16.0919C47.1751 16.3197 47.394 16.6076 47.4189 16.9748C47.4394 17.2775 47.3028 17.5444 47.1084 17.7675C46.4286 18.5481 45.136 18.7904 44.163 18.8558C43.4631 18.9215 42.7221 18.8329 42.0431 18.6638C41.5796 18.5484 41.1142 18.3904 40.7159 18.1193C40.4352 17.9282 40.019 17.5189 39.9733 17.1652C39.9336 16.8581 40.0448 16.5888 40.2417 16.3559C40.9593 15.5073 42.2507 15.2789 43.2944 15.2045Z" fill="#E3FE0F"/>
</svg>
