<svg width="60" height="51" viewBox="0 0 60 51" fill="none" xmlns="http://www.w3.org/2000/svg">
<g clip-path="url(#clip0_2014_821)">
<path d="M32.7784 0.656138C32.8935 0.635724 33.0278 0.642181 33.1454 0.641522C33.63 0.638807 34.1256 0.733905 34.5697 0.932459C34.8145 1.0419 35.0385 1.21169 35.2654 1.35426L36.5839 2.18562L38.1255 3.15131L38.9904 3.68351C39.1681 3.80542 39.3365 3.9471 39.4881 4.10081C39.9546 4.57398 40.2901 5.20866 40.4315 5.85983C40.5391 6.35566 40.5281 6.86155 40.5262 7.36572L40.5123 9.04767L40.5015 12.749L40.5016 14.8685C40.5038 14.9532 40.5519 14.9568 40.617 14.9933L42.3964 16.0565L46.3256 18.3985L48.4217 19.6568C48.6 19.7725 48.8125 19.8834 48.9643 20.0323C48.9871 20.0808 48.9977 20.1121 48.9996 20.1666L49 21.8799L48.9808 25.926L48.9644 37.0345C48.5455 37.391 48.0488 37.6823 47.5794 37.9642L46.1841 38.8057L42.159 41.2459L33.4311 46.5256L27.0363 50.38L26.6265 50.6411L11.308 41.4784C11.1995 41.4035 11.0357 41.2654 11.0175 41.126C10.9998 40.9903 11.0104 40.8361 11.0103 40.6983L11.0112 39.9045L11.0096 37.3009L11.0097 28.0827L11.002 25.3826L11.0016 24.7703C11.0018 24.7052 10.9925 24.5599 11.0165 24.5016C11.0413 24.4413 11.15 24.3673 11.2023 24.3318L13.5278 22.8946L17.9068 20.1635L19.1438 19.3931C19.186 19.3663 19.3948 19.2557 19.413 19.2219C19.4241 19.2013 19.4137 19.0461 19.4138 19.0146L19.4166 18.2327L19.417 14.6088C19.4167 13.9267 19.3831 13.224 19.4369 12.5449C19.5785 10.7589 20.3224 9.11446 21.4047 7.71541C21.8132 7.18724 22.3195 6.69092 22.8536 6.29295C23.4011 5.88506 24.015 5.56201 24.5987 5.20981L27.4988 3.4453L30.2359 1.78479C30.6713 1.51996 31.1087 1.19882 31.5652 0.979654C31.9495 0.795135 32.359 0.708574 32.7784 0.656138Z" fill="#17161E"/>
<path d="M39.964 17.5833C39.992 17.5885 39.9762 17.583 40.0081 17.6071L40.0108 19.2316L38.026 20.4758L37.9704 20.4566L37.9678 18.8379L39.964 17.5833Z" fill="white"/>
<path d="M26.105 25.8477L26.1181 27.6618L23.7212 29.1535C23.6866 29.1495 23.7048 29.1556 23.6695 29.1281L23.6665 27.3968L26.105 25.8477Z" fill="white"/>
<path d="M34.2922 17.1699L37.1503 18.8983L37.144 20.4757L34.29 18.8021L34.2922 17.1699Z" fill="white"/>
<path d="M19.9893 25.4344L22.8466 27.3834L22.8495 29.1534L19.9932 27.2627L19.9893 25.4344Z" fill="white"/>
<path d="M19.5386 20.0626C19.5538 20.068 19.5669 20.0781 19.5804 20.0868L19.5715 22.6626L14.3357 25.8477C14.2345 25.8477 13.2267 25.2117 13.0652 25.1134L12.2256 24.595C12.4802 24.3913 12.7904 24.2299 13.0688 24.0603L14.6141 23.1156L19.5386 20.0626Z" fill="white"/>
<path d="M33.8263 12.6245C33.8619 12.628 33.8433 12.6223 33.8794 12.6483L33.8817 14.9259L26.585 19.2361L26.529 19.2229L26.5269 16.9167L33.8263 12.6245Z" fill="white"/>
<path d="M33.8372 8.49231L33.8785 8.50537L33.8817 11.5825L26.5639 15.9303L26.5269 15.9064C26.5284 15.3261 26.5294 14.7699 26.6866 14.2054C26.931 13.3279 27.4421 12.5157 28.1207 11.8922C28.3824 11.6518 28.7007 11.4739 29.0094 11.2974L29.9925 10.7287L33.8372 8.49231Z" fill="white"/>
<path d="M36.4663 6.8502L36.572 6.83978C36.7078 6.83523 36.7844 6.8667 36.8817 6.96163C37.0104 7.08715 37.1026 7.27458 37.1244 7.45099C37.1686 7.80979 37.1425 8.19795 37.1433 8.56032L37.1464 10.6075L37.148 17.9964L35.7423 17.1795L34.3135 16.3432C34.2713 16.1855 34.2991 15.9443 34.2981 15.7778L34.3011 14.2193L34.3008 8.1058L35.4626 7.41174C35.7879 7.2159 36.1139 6.99496 36.4663 6.8502Z" fill="white"/>
<path d="M11.8265 25.4344L13.8543 26.6793L13.8599 39.3848C13.805 39.454 13.7094 39.5036 13.6369 39.5523L13.1141 39.8926L11.8169 40.7236L11.8265 25.4344Z" fill="white"/>
<path d="M48.1695 20.889C48.194 21.0293 48.1784 21.2022 48.1769 21.346L48.1682 22.1897L48.1644 25.0211L48.1505 36.1782C48.0635 36.1797 47.0623 35.5449 46.8989 35.4464C46.6433 35.3318 46.3785 35.136 46.1401 34.984L46.144 22.1129L48.1695 20.889Z" fill="white"/>
<path d="M14.1447 39.9099C14.1668 39.9058 14.1886 39.8951 14.211 39.8977C14.2243 39.8992 14.2787 39.9396 14.291 39.9472L14.6213 40.1522L16.4941 41.3253L23.021 45.3918L26.1181 47.3393L26.1135 49.8146L24.9199 49.0715L12.2256 41.1554L14.1447 39.9099Z" fill="white"/>
<path d="M46.0705 35.765C46.2929 35.8619 46.5105 36.0178 46.7187 36.1439C47.2029 36.4369 47.679 36.738 48.1829 36.9963L28.2848 49.01L26.9355 49.8145L26.94 47.4262L46.0705 35.765Z" fill="white"/>
<path d="M33.6439 15.9302C33.666 15.9371 33.6508 15.9314 33.6864 15.9547C33.6886 16.1453 33.7145 16.3436 33.6153 16.5126C33.5837 16.5664 33.5547 16.6099 33.548 16.6736C33.5103 17.0301 33.5459 17.4333 33.5448 17.794L33.5431 18.6363C33.5432 18.7607 33.5289 18.9066 33.551 19.0287C33.5644 19.1029 33.5957 19.1447 33.651 19.1923C33.9427 19.4429 34.3624 19.6282 34.6936 19.8257L36.7419 21.0822L28.7617 26.009L26.9774 27.0873L26.9504 25.2297C26.823 25.0968 26.6797 25.0034 26.5269 24.9038L26.5315 20.3497C26.5351 20.3352 26.5402 20.3201 26.5501 20.309C26.6153 20.2361 26.7956 20.155 26.8827 20.1004L28.1985 19.2875L33.6439 15.9302Z" fill="white"/>
<path d="M36.9817 3.95576C37.0678 3.94155 37.1683 3.94858 37.2557 3.94808C37.9166 3.94425 38.5857 4.20849 39.0533 4.67697C39.5363 5.16079 39.8216 5.84041 39.9428 6.50731C40.0376 7.02899 40.0062 7.55966 40.0037 8.08766L39.9945 10.0364L39.987 16.6068L38.0807 17.8224L38.0714 15.3828L38.0703 10.5722L38.0722 8.82949C38.0733 8.23916 38.1648 7.54164 37.9514 6.98371C37.8204 6.64117 37.6218 6.37336 37.2786 6.22298C36.9581 6.08252 36.6183 6.11249 36.3001 6.24169C36.0208 6.35514 35.7647 6.54575 35.5075 6.70268L34.2246 7.47391L30.4334 9.75974L29.0385 10.5992C28.6033 10.8613 28.1637 11.096 27.7821 11.4378C27.0837 12.0634 26.5916 12.8428 26.2411 13.7057C26.1016 14.1111 25.9882 14.5118 25.9435 14.9396C25.8934 15.4176 25.907 15.9017 25.9066 16.3817L25.9071 18.4067L25.9244 25.1239L24.1015 26.2608L24.091 26.2147C24.055 25.987 24.0917 25.6828 24.0924 25.4467L24.0935 23.5522L24.0963 17.9161L24.0923 16.1968C24.0896 15.5018 24.0897 14.8356 24.2293 14.15C24.4677 12.9784 25.011 11.8992 25.7457 10.9615C26.1382 10.4607 26.6406 9.94209 27.153 9.56447C27.5842 9.24666 28.0893 8.99357 28.5501 8.71735L31.2468 7.08701L34.2023 5.29501L35.2398 4.66727C35.4745 4.52473 35.7061 4.3702 35.9517 4.24725C36.2863 4.07961 36.6127 4.00115 36.9817 3.95576Z" fill="white"/>
<path d="M33.1036 1.46749C33.4327 1.46623 33.7819 1.51225 34.091 1.62966C34.4415 1.76279 34.7713 2.00553 35.0907 2.2022L36.7419 3.21242C36.3063 3.29101 35.8979 3.38008 35.4948 3.57075C35.1403 3.7384 34.803 3.98183 34.4646 4.18274L32.0542 5.63171L28.6674 7.68173L27.511 8.37466C27.1452 8.58894 26.7766 8.79277 26.4362 9.04751C26.1281 9.27819 25.8401 9.55345 25.567 9.82419C24.4918 10.8902 23.669 12.3197 23.3092 13.788C23.0627 14.7945 23.091 15.776 23.092 16.8017L23.094 19.2283L23.09 26.146L23.0925 26.6741L19.9897 24.8185L19.9916 17.4384L19.9912 14.6644C19.9912 13.6306 19.9555 12.6146 20.1925 11.5998C20.4991 10.2875 21.1885 9.03494 22.0783 8.02522C22.4345 7.62105 22.8407 7.23872 23.2837 6.93038C23.8146 6.56077 24.4033 6.24241 24.961 5.91197L27.9763 4.11645L30.8927 2.36505C31.2432 2.15672 31.5788 1.89174 31.9485 1.72331C32.3182 1.55488 32.7013 1.49358 33.1036 1.46749Z" fill="white"/>
<path d="M40.5817 15.9302L48.1826 20.3671L26.4965 33.2856L19.5328 29.2007L14.6772 26.3713L19.2737 23.6243L19.2753 24.5017C19.2019 24.5609 19.1362 24.6176 19.1035 24.7082C19.0408 24.8822 19.082 25.1895 19.0819 25.3775L19.0799 26.9906C19.0798 27.1351 19.0406 27.4502 19.1105 27.5739C19.1407 27.6273 19.1868 27.6669 19.2372 27.7012C19.4301 27.8322 19.6563 27.9352 19.8584 28.0559L22.4475 29.5808C22.6898 29.7201 23.0086 29.9669 23.2759 30.03C23.5012 29.9415 23.7012 29.8034 23.9051 29.6758L24.5818 29.2676L28.2815 27.0276L37.4643 21.5674L39.7153 20.2199C40.0066 20.045 40.3945 19.8692 40.6447 19.6444C40.7498 19.55 40.7675 19.4604 40.7701 19.324L40.7738 17.5868C40.7738 17.3198 40.8112 16.9823 40.7566 16.724C40.7337 16.6161 40.6783 16.5496 40.6015 16.4725L40.5798 16.4511L40.5817 15.9302Z" fill="white"/>
<path d="M26.6939 30.3937C26.8281 30.3889 26.9604 30.4131 27.0816 30.4698C27.178 30.5149 27.3015 30.6099 27.3324 30.7137C27.3561 30.7933 27.345 30.8893 27.2985 30.9599C27.1867 31.1299 26.9784 31.1853 26.787 31.2195C26.5982 31.2215 26.3996 31.1881 26.2496 31.0678C26.1758 31.0086 26.1291 30.9302 26.1202 30.8375C26.1114 30.7448 26.1396 30.6618 26.2022 30.591C26.3269 30.4501 26.5139 30.4132 26.6939 30.3937Z" fill="#17161E"/>
<path d="M43.4595 19.6627C43.6925 19.6349 43.9159 19.6443 44.1333 19.7478C44.2719 19.8137 44.4273 19.9231 44.4788 20.0883C44.5206 20.2221 44.5147 20.3565 44.4511 20.4806C44.3401 20.6972 44.1471 20.7956 43.9431 20.868C43.7078 20.9136 43.4543 20.8867 43.2386 20.7696C43.0986 20.6936 42.9405 20.5577 42.8934 20.386C42.8626 20.2737 42.8588 20.1587 42.9137 20.0557C43.0307 19.8366 43.2472 19.7282 43.4595 19.6627Z" fill="#17161E"/>
<path d="M14.2686 27.0874L26.118 34.187L26.1002 46.4716L26.0551 46.5089L14.2902 39.4786L14.2686 27.0874Z" fill="white"/>
<path d="M45.6736 22.5419L45.7146 22.545C45.7385 22.6455 45.7281 22.7565 45.7283 22.8598L45.7288 23.4654L45.7303 25.6449L45.7312 35.098L27.0003 46.5088L26.9391 46.4953L26.9355 34.036C27.0235 33.9397 27.1896 33.8621 27.3029 33.7912L28.0937 33.2955L30.8264 31.608L39.5904 26.2225L45.6736 22.5419Z" fill="white"/>
<path d="M37.3295 28.7538L37.6973 28.7402C38.2082 28.7553 38.6831 28.9965 39.0309 29.3956C39.8961 30.3882 39.6225 32.0152 39.2263 33.1617C39.0889 33.5594 38.8557 33.9725 38.7736 34.3844C38.7161 34.6727 38.7447 35.0361 38.7429 35.3332L38.7285 37.4113L34.9842 39.886C34.7969 40.0188 34.5409 40.2434 34.3258 40.302C34.2364 40.3263 34.1441 40.2963 34.0708 40.24C33.9971 40.1834 33.9461 40.1042 33.9255 40.0093C33.8812 39.8052 33.9119 39.5384 33.9119 39.3267L33.9135 37.5284C33.9132 37.2504 33.9395 36.9355 33.899 36.6611C33.8739 36.4907 33.5532 36.2226 33.4537 36.0599C33.261 35.7446 33.1549 35.3847 33.1014 35.0148C32.9021 33.6373 33.5385 31.995 34.2959 30.9076C35.053 29.8206 36.0428 28.9546 37.3295 28.7538Z" fill="#17161E"/>
<path d="M37.5239 29.5778L37.8048 29.5667C38.1465 29.5673 38.4651 29.7129 38.7037 29.9483C39.5125 30.746 39.1565 32.2084 38.7945 33.1358C38.633 33.5496 38.3837 33.9781 38.307 34.4168C38.248 34.7538 38.2724 35.1163 38.2705 35.4578L38.2627 37.1437L34.8972 39.1837L34.4018 39.484L34.4029 37.709C34.4024 37.4017 34.4341 37.053 34.3863 36.7504C34.3682 36.6358 34.3284 36.5161 34.2753 36.4119C34.1504 36.1667 33.942 35.9866 33.7813 35.7668C33.6473 35.5836 33.5553 35.3376 33.5167 35.1159C33.3045 33.8985 33.9004 32.5101 34.6072 31.5349C35.3076 30.5683 36.3045 29.7865 37.5239 29.5778Z" fill="white"/>
</g>
<defs>
<clipPath id="clip0_2014_821">
<rect width="60" height="50" fill="white" transform="translate(0 0.641052)"/>
</clipPath>
</defs>
</svg>
